<svg xmlns="http://www.w3.org/2000/svg" viewBox="0 0 283.46 354.325" x="0px" y="0px"><title>instrument</title><g data-name="Ebene 2"><path d="M217.75,204.65a78.26,78.26,0,0,0,11.51-37.93h.06v-47c0-45.47-39.22-82.34-87.59-82.34S54.14,74.27,54.14,119.74v47h.06a78.26,78.26,0,0,0,11.51,37.93L54.28,227.3A6,6,0,0,0,65,232.71l8.67-17.18c16.06,18.62,40.58,30.53,68.07,30.53s52-11.91,68.07-30.53l8.67,17.18a6,6,0,0,0,10.71-5.41Zm-76,29.41c-41.68,0-75.59-31.55-75.59-70.34s33.91-70.34,75.59-70.34,75.59,31.55,75.59,70.34S183.41,234.06,141.73,234.06Z"/><circle cx="165.41" cy="185.15" r="19.02"/></g><text x="0" y="298.46" fill="#000000" font-size="5px" font-weight="bold" font-family="'Helvetica Neue', Helvetica, Arial-Unicode, Arial, Sans-serif">Created by André Schauer</text><text x="0" y="303.46" fill="#000000" font-size="5px" font-weight="bold" font-family="'Helvetica Neue', Helvetica, Arial-Unicode, Arial, Sans-serif">from the Noun Project</text></svg>